<?xml version="1.0" encoding="UTF-8"?>
<svg width="169px" height="37px" viewBox="0 0 169 37" version="1.1" xmlns="http://www.w3.org/2000/svg" xmlns:xlink="http://www.w3.org/1999/xlink">
    <!-- Generator: Sketch 43.1 (39012) - http://www.bohemiancoding.com/sketch -->
    <title>Logo</title>
    <desc>Created with Sketch.</desc>
    <defs></defs>
    <g id="Page-1" stroke="none" stroke-width="1" fill="none" fill-rule="evenodd">
        <g id="Home" transform="translate(-375.000000, -88.000000)" fill="#FFFFFF">
            <g id="Header" transform="translate(375.000000, 88.000000)">
                <g id="Logo">
                    <text id="CodeArty" font-family="Montserrat-Medium, Montserrat" font-size="26" font-weight="400">
                        <tspan x="48.336" y="28">Code</tspan>
                        <tspan x="116.716" y="28" font-family="Montserrat-ExtraLight, Montserrat" font-weight="300">Arty</tspan>
                    </text>
                    <g id="Path-3" fill-rule="nonzero">
                        <path d="M39.9987208,18.9213753 C40.0105284,18.5801021 39.8827946,18.2481546 39.6434099,17.9980129 L36.1369841,14.5933237 L36.1369841,6.74558236 C36.114507,6.68094699 36.114507,6.59448669 36.0928944,6.52985132 C36.0712818,6.46521595 36.0928944,6.46521595 36.0704173,6.46521595 C36.0457552,6.42595656 36.0306736,6.38173746 36.0263276,6.3359452 C36.0298571,6.28460577 36.0221982,6.23312063 36.0038506,6.18484953 C35.9813735,6.18484953 35.9597609,6.14203909 35.9597609,6.12021416 L35.8888716,5.99094342 L35.8447819,5.92630805 L35.7341255,5.79703731 L35.6900358,5.75422686 L35.5344252,5.62495612 L35.4479749,5.58214568 L35.4047497,5.58214568 L35.3182993,5.53933524 C35.1945761,5.47912668 35.0571897,5.45025218 34.9188988,5.4553932 L31.9648906,5.4553932 C31.6372697,5.44953456 31.3209795,5.57181881 31.0871732,5.79473664 C30.8533669,6.01765448 30.7216792,6.32248568 30.7217347,6.64065481 C30.7339915,7.29877172 31.2869975,7.82602402 31.9648906,7.82591642 L33.6299242,7.82591642 L33.6299242,15.0239464 C33.625463,15.124902 33.6330052,15.2260204 33.6524013,15.3252983 C33.7004661,15.6770155 33.9028419,15.9913608 34.2074125,16.1873831 L34.3630231,16.2948289 L37.0481707,18.9020686 L34.0518019,21.8114998 C33.9152011,21.9345352 33.8024672,22.0803912 33.718968,22.2421224 C33.696491,22.3260645 33.696491,22.3713932 33.6748784,22.4360285 L33.6748784,22.4964668 C33.6564243,22.5958621 33.6488897,22.6968788 33.6524013,22.7978187 L33.6524013,30.1251194 L31.9648906,30.1251194 C31.3029034,30.1251194 30.7662566,30.6461957 30.7662566,31.2889758 C30.7662566,31.931756 31.3029034,32.4528322 31.9648906,32.4528322 L34.8722156,32.4528322 C35.0320046,32.4584518 35.1911041,32.4297907 35.3381829,32.3688902 L35.4937935,32.2849481 L35.5603603,32.2849481 L35.7159709,32.1556774 L35.7600606,32.091042 C35.8080435,32.0581834 35.8462204,32.0135845 35.870717,31.9617713 L35.9148067,31.9189608 L35.9813735,31.7896901 L35.9813735,31.7250547 C36.0038506,31.7032298 36.0038506,31.6411127 36.0254631,31.6176089 C36.0188366,31.5803243 36.0268574,31.5419825 36.0479402,31.5101631 C36.0704173,31.4673527 36.0704173,31.4262211 36.0920299,31.3808924 L36.0920299,31.3808924 C36.0961625,31.2998546 36.1112774,31.2196992 36.1369841,31.142497 L36.1369841,23.2099742 L39.6217973,19.7834601 C39.8761725,19.5668864 40.0149435,19.2494948 39.9987208,18.9213753 Z M26.5271642,0.991355496 C26.374819,0.850570903 26.1805817,0.760089139 25.972153,0.732814012 L25.8857026,0.732814012 L17.8933686,0 L17.7827122,0 L17.6271016,0.0428104406 L17.474949,0.0839420403 L17.4083822,0.0839420403 L17.2752487,0.167884081 C17.2086819,0.167884081 17.1645922,0.232519452 17.1196381,0.251826121 L17.0755484,0.251826121 L16.9389569,0.387812226 L16.8948672,0.430622667 L16.8084168,0.559893409 L16.8084168,0.6253682 C16.8031504,0.671726572 16.7868741,0.716265326 16.7608692,0.755478363 C16.7608692,0.777303293 16.7383921,0.820113734 16.7167795,0.820113734 L16.7167795,0.923362444 C16.7167795,0.966172884 16.6943024,0.987997815 16.6943024,1.03080826 L13.942588,31.3993596 C13.8778034,31.7212974 13.9675346,32.0543601 14.186378,32.3042548 L17.7593706,36.5063933 L17.8034603,36.5903354 C18.0324124,36.8472538 18.3639017,36.9964212 18.7137824,36.9999725 C18.9926952,37.0019048 19.262135,36.9018111 19.4684938,36.7196061 L23.7745853,33.1210109 L23.9301959,32.9699152 L23.9301959,32.9271047 C24.0690299,32.7380122 24.1464085,32.5129041 24.1523733,32.280751 L26.2608971,8.8332209 L26.2608971,8.74927886 C26.2608971,8.66533682 26.2833742,8.62000812 26.2833742,8.55537275 L26.2833742,8.29683127 L26.8608625,2.00117824 C26.9459378,1.62989507 26.8188,1.24287455 26.5280287,0.987997815 L26.5271642,0.991355496 Z M21.9988953,30.9687369 L16.4055583,30.4944644 L18.3394524,9.02964528 L23.9103124,9.50391781 L21.9988953,30.9687369 Z M24.0858065,7.17620503 L18.5123531,6.7019325 L18.9117536,2.49979396 L24.4826136,2.97406649 L24.0858065,7.17620503 Z M8.03889426,30.1276377 L6.37386069,30.1276377 L6.37386069,22.8246802 C6.37832184,22.7237246 6.37077967,22.6226062 6.3513836,22.5233283 L6.3513836,22.4586929 C6.32392319,22.3974304 6.30895059,22.331581 6.30729393,22.2647868 C6.21635573,22.1076453 6.10444367,21.9628527 5.97446011,21.8341641 L2.95647871,18.9213753 L5.6416263,16.2923106 L5.79723692,16.1848648 C6.09822614,15.9958398 6.30053435,15.689861 6.35224811,15.3454444 C6.37239332,15.2389017 6.37993459,15.1304728 6.37472519,15.0222675 L6.37472519,7.80325207 L8.03889426,7.80325207 C8.36651516,7.80911071 8.6828054,7.68682646 8.91661169,7.46390863 C9.15041798,7.24099079 9.28210572,6.93615959 9.28205016,6.61799046 C9.28525495,6.2988316 9.14814763,5.99348931 8.90512667,5.77857006 C8.6816164,5.54799066 8.366526,5.42224593 8.04062326,5.43356827 L5.06500253,5.43356827 C4.92671164,5.42842725 4.78932524,5.45730175 4.66560195,5.51751031 C4.63153403,5.5180957 4.59964347,5.53388799 4.57915161,5.56032075 L4.53160392,5.56032075 L4.44515358,5.62495612 C4.38509958,5.64802835 4.33170356,5.68489717 4.28954297,5.73240193 L4.2454533,5.79703731 C4.20136362,5.81886224 4.15900295,5.88097935 4.13479686,5.90448312 L4.09070719,5.96911849 L4.02414042,6.09838923 C3.98005075,6.12021416 3.98005075,6.1630246 3.95757366,6.18233127 C3.93509657,6.20163794 3.93509657,6.26627331 3.93509657,6.31160201 C3.93057286,6.35735806 3.91550417,6.40153941 3.8910069,6.44087275 C3.86852981,6.4836832 3.86852981,6.4836832 3.86852981,6.50550813 C3.86663392,6.57933612 3.85172152,6.6523026 3.82444014,6.72123917 L3.82444014,14.5656228 L0.357781462,17.9946552 C0.109418618,18.2393251 -0.0198107566,18.5751593 0.00247056108,18.9180176 C-0.0148321963,19.2494414 0.114444942,19.5722668 0.357781462,19.805285 L3.84259471,23.2317991 L3.84259471,31.1223509 C3.8650718,31.1869862 3.8650718,31.2734465 3.88668438,31.3590674 L3.88668438,31.3590674 C3.90916147,31.4018779 3.90916147,31.4430095 3.93077405,31.4883382 C3.95238664,31.5336669 3.95325114,31.5529735 3.97486373,31.595784 C3.99647631,31.6385944 3.97486373,31.679726 3.99734082,31.7032298 L3.99734082,31.7678652 L4.06390758,31.8971359 L4.10799725,31.9399463 C4.13249389,31.9917596 4.17067077,32.0363585 4.21865369,32.0692171 L4.26274336,32.1338525 L4.41835398,32.2631232 L4.48492074,32.2631232 L4.64053135,32.3470652 C4.78820115,32.4060432 4.94686831,32.4346264 5.10649869,32.4310073 L8.03889426,32.4310073 C8.36376103,32.4368455 8.67665221,32.3119784 8.90339767,32.0860055 C9.12304416,31.8655785 9.24979226,31.5733233 9.25870857,31.2667312 C9.2655186,30.9542058 9.13758143,30.6531229 8.90579072,30.4361866 C8.674,30.2192503 8.35942571,30.1061802 8.03802975,30.12428 L8.03889426,30.1276377 Z" id="Shape"></path>
                    </g>
                </g>
            </g>
        </g>
    </g>
</svg>